<svg width="77" height="80" viewBox="0 0 77 80" fill="none" xmlns="http://www.w3.org/2000/svg">
<path d="M60.4599 29.6364C67.6225 32.7767 68.6997 42.4933 62.3987 47.1261L27.7433 72.6068C21.4424 77.2397 12.489 73.3142 11.6273 65.541L6.88808 22.7882C6.0264 15.015 13.9026 9.22391 21.0653 12.3643L60.4599 29.6364Z" fill="#BBBBBB"/>
<path d="M57.3619 23.1596C65.0948 24.3296 68.6613 33.4319 63.7817 39.5437L36.9437 73.1589C32.0641 79.2708 22.398 77.8084 19.5448 70.5265L3.85215 30.4766C0.998944 23.1948 7.09848 15.5549 14.8313 16.7249L57.3619 23.1596Z" fill="#FF4A6A"/>
<path d="M30.2037 46.0837L30.1981 46.0708C30.0867 46.0445 29.9759 46.0156 29.8659 45.984L29.8576 45.9813C28.8046 45.679 27.8322 45.1459 27.0112 44.4206C26.108 43.6238 25.4134 42.6182 24.988 41.4914C24.5626 40.3646 24.4194 39.1509 24.5707 37.956C24.722 36.7611 25.1633 35.6214 25.8561 34.6362C26.5489 33.651 27.4722 32.8503 28.5455 32.3038C29.6188 31.7573 30.8095 31.4817 32.0138 31.5009C33.218 31.5202 34.3993 31.8338 35.4546 32.4143C36.5098 32.9948 37.4071 33.8247 38.0681 34.8315C38.729 35.8383 39.1337 36.9916 39.2467 38.1907C39.2827 38.5719 38.9698 38.8829 38.5868 38.8829C38.2047 38.8829 37.8992 38.5719 37.8549 38.1916C37.7329 37.1425 37.336 36.1442 36.7045 35.2976C36.073 34.451 35.2292 33.7861 34.2583 33.3702C33.2875 32.9543 32.224 32.8021 31.1755 32.9289C30.1269 33.0558 29.1304 33.4572 28.2868 34.0926C27.4431 34.728 26.7821 35.5749 26.3707 36.5477C25.9592 37.5204 25.8119 38.5845 25.9436 39.6325C26.0752 40.6804 26.4812 41.6751 27.1205 42.5158C27.7598 43.3565 28.6097 44.0136 29.5844 44.4206L29.6213 44.4363C29.8059 44.5119 29.996 44.5784 30.1898 44.6365C30.3532 44.2418 30.6484 43.9159 31.0252 43.7145C31.4019 43.5131 31.8368 43.4486 32.2558 43.532C32.6748 43.6154 33.0519 43.8416 33.3228 44.1719C33.5937 44.5022 33.7416 44.9163 33.7413 45.3435C33.7417 45.7677 33.596 46.1791 33.3287 46.5085C33.0613 46.8379 32.6887 47.0652 32.2735 47.1521C31.8582 47.2389 31.4258 47.1801 31.0488 46.9856C30.6718 46.791 30.3734 46.4725 30.2037 46.0837ZM29.2937 47.2577C27.6544 46.7471 26.2008 45.7671 25.1127 44.439C24.4387 44.518 23.8172 44.8417 23.3661 45.3487C22.9151 45.8558 22.6659 46.5108 22.666 47.1894V47.8493C22.666 51.2808 26.5516 53.65 31.8954 53.65C37.2393 53.65 41.1249 51.1507 41.1249 47.8493V47.1894C41.1249 46.4551 40.8332 45.7508 40.3139 45.2315C39.7946 44.7123 39.0904 44.4206 38.356 44.4206H34.9919C35.2096 45.1497 35.1629 45.9323 34.8601 46.6304C34.5572 47.3285 34.0176 47.8973 33.3364 48.2364C32.6552 48.5756 31.8761 48.6634 31.1365 48.4843C30.3969 48.3053 29.7443 47.8709 29.2937 47.2577ZM36.5102 38.8829C36.5102 37.4874 35.8918 36.2368 34.9125 35.3905C34.4212 34.9666 33.846 34.6512 33.2245 34.4647C32.603 34.2782 31.9491 34.2249 31.3056 34.3082C30.6621 34.3915 30.0434 34.6096 29.4899 34.9483C28.9364 35.2869 28.4605 35.7385 28.0933 36.2735C27.7262 36.8085 27.476 37.415 27.359 38.0532C27.2421 38.6915 27.2611 39.3472 27.4148 39.9777C27.5685 40.6081 27.8534 41.199 28.2509 41.7119C28.6485 42.2247 29.1497 42.648 29.7219 42.954C30.3159 42.412 31.0913 42.112 31.8954 42.1132C32.6998 42.1121 33.4755 42.4121 34.0699 42.954C34.8073 42.5601 35.4238 41.9733 35.8536 41.2562C36.2834 40.5392 36.5103 39.7189 36.5102 38.8829Z" fill="white"/>
</svg>
