<svg width="78" height="80" viewBox="0 0 78 80" fill="none" xmlns="http://www.w3.org/2000/svg">
<path d="M60.9599 29.6364C68.1225 32.7767 69.1997 42.4933 62.8987 47.1261L28.2433 72.6068C21.9424 77.2397 12.989 73.3142 12.1273 65.541L7.38808 22.7882C6.5264 15.015 14.4026 9.22391 21.5653 12.3643L60.9599 29.6364Z" fill="#BBBBBB"/>
<path d="M57.8619 23.1596C65.5948 24.3296 69.1613 33.4319 64.2817 39.5437L37.4437 73.1589C32.5641 79.2708 22.898 77.8084 20.0448 70.5265L4.35215 30.4766C1.49894 23.1948 7.59848 15.5549 15.3313 16.7249L57.8619 23.1596Z" fill="#FF4A6A"/>
<path fill-rule="evenodd" clip-rule="evenodd" d="M22.9793 34.1949C22.9793 32.5762 24.2916 31.2639 25.9103 31.2639H32.4236C33.1431 31.2639 33.7263 31.8471 33.7263 32.5666C33.7263 33.286 33.1431 33.8692 32.4236 33.8692H25.9103C25.7304 33.8692 25.5846 34.015 25.5846 34.1949V46.136C25.5846 46.3159 25.7304 46.4616 25.9103 46.4616H34.0501C34.0507 46.4616 34.0513 46.4616 34.0519 46.4616C34.0526 46.4616 34.0532 46.4616 34.0538 46.4616H42.1936C42.3735 46.4616 42.5193 46.3159 42.5193 46.136V40.7082C42.5193 39.9888 43.1025 39.4056 43.8219 39.4056C44.5414 39.4056 45.1246 39.9888 45.1246 40.7082V46.136C45.1246 47.7548 43.8124 49.067 42.1936 49.067H35.3546V50.8039H39.4797C40.1991 50.8039 40.7824 51.3871 40.7824 52.1065C40.7824 52.826 40.1991 53.4092 39.4797 53.4092H28.6242C27.9047 53.4092 27.3215 52.826 27.3215 52.1065C27.3215 51.3871 27.9047 50.8039 28.6242 50.8039H32.7493V49.067H25.9103C24.2916 49.067 22.9793 47.7548 22.9793 46.136V34.1949ZM39.3153 31.6455C39.824 32.1542 39.824 32.979 39.3153 33.4877L38.0653 34.7377L39.3153 35.9877C39.824 36.4964 39.824 37.3212 39.3153 37.8299C38.8066 38.3386 37.9817 38.3386 37.473 37.8299L35.3019 35.6588C35.0576 35.4145 34.9204 35.0832 34.9204 34.7377C34.9204 34.3922 35.0576 34.0609 35.3019 33.8166L37.473 31.6455C37.9817 31.1367 38.8066 31.1367 39.3153 31.6455ZM40.7297 31.6455C41.2384 31.1367 42.0632 31.1367 42.5719 31.6455L44.743 33.8166C44.9873 34.0609 45.1246 34.3922 45.1246 34.7377C45.1246 35.0832 44.9873 35.4145 44.743 35.6588L42.5719 37.8299C42.0632 38.3386 41.2384 38.3386 40.7297 37.8299C40.221 37.3212 40.221 36.4964 40.7297 35.9877L41.9797 34.7377L40.7297 33.4877C40.221 32.979 40.221 32.1542 40.7297 31.6455Z" fill="white"/>
</svg>
