<svg width="77" height="80" viewBox="0 0 77 80" fill="none" xmlns="http://www.w3.org/2000/svg">
<path d="M60.4599 29.6364C67.6225 32.7767 68.6997 42.4933 62.3987 47.1261L27.7433 72.6068C21.4424 77.2397 12.489 73.3142 11.6273 65.541L6.88808 22.7882C6.0264 15.015 13.9026 9.22391 21.0653 12.3643L60.4599 29.6364Z" fill="#BBBBBB"/>
<path d="M57.3619 23.1596C65.0948 24.3296 68.6613 33.4319 63.7817 39.5437L36.9437 73.1589C32.0641 79.2708 22.398 77.8084 19.5448 70.5265L3.85215 30.4766C0.998944 23.1948 7.09848 15.5549 14.8313 16.7249L57.3619 23.1596Z" fill="#FF4A6A"/>
<path d="M34.0818 45.092C34.0818 45.9881 34.263 46.8338 34.5852 47.6091H27.5375C26.0273 47.6091 24.7083 47.1057 23.621 46.0284C22.5437 44.9712 22 43.6724 22 42.1521C22 40.8433 22.3927 39.6754 23.178 38.6484C23.9633 37.6215 25.0205 36.967 26.279 36.6851C26.7018 35.1447 27.5375 33.8962 28.796 32.9397C30.0545 31.9833 31.4842 31.5 33.075 31.5C35.0383 31.5 36.6995 32.1846 38.0688 33.5539C39.4381 34.9232 40.1227 36.5844 40.1227 38.5477H40.2234C36.8002 38.7793 34.0818 41.6185 34.0818 45.092ZM40.1227 41.0648V39.5545L37.8574 41.8199L40.1227 44.0852V42.575C40.7903 42.575 41.4305 42.8402 41.9025 43.3122C42.3746 43.7843 42.6398 44.4245 42.6398 45.092C42.6398 45.4948 42.5492 45.8774 42.378 46.2197L43.4754 47.3171C43.8983 46.6828 44.15 45.9176 44.15 45.092C44.15 42.867 42.3478 41.0648 40.1227 41.0648ZM40.1227 47.6091C39.4552 47.6091 38.8149 47.3439 38.3429 46.8719C37.8709 46.3998 37.6057 45.7596 37.6057 45.092C37.6057 44.6893 37.6963 44.3067 37.8675 43.9644L36.77 42.867C36.3472 43.5013 36.0955 44.2665 36.0955 45.092C36.0955 47.3171 37.8977 49.1193 40.1227 49.1193V50.6295L42.3881 48.3642L40.1227 46.0989V47.6091Z" fill="white"/>
</svg>
