<svg width="77" height="80" viewBox="0 0 77 80" fill="none" xmlns="http://www.w3.org/2000/svg">
<path d="M60.4599 29.6364C67.6225 32.7767 68.6997 42.4933 62.3987 47.1261L27.7433 72.6068C21.4424 77.2397 12.489 73.3142 11.6273 65.541L6.88808 22.7882C6.0264 15.015 13.9026 9.22391 21.0653 12.3643L60.4599 29.6364Z" fill="#BBBBBB"/>
<path d="M57.3619 23.1596C65.0948 24.3296 68.6613 33.4319 63.7817 39.5437L36.9437 73.1589C32.0641 79.2708 22.398 77.8084 19.5448 70.5265L3.85215 30.4766C0.998944 23.1948 7.09848 15.5549 14.8313 16.7249L57.3619 23.1596Z" fill="#FF4A6A"/>
<path d="M37.9394 31.5H28.107C26.9437 31.5 26 32.4301 26 33.5766V51.5734C26 52.7199 26.9437 53.65 28.107 53.65H37.9394C39.1026 53.65 40.0463 52.7199 40.0463 51.5734V33.5766C40.0463 32.4301 39.1026 31.5 37.9394 31.5ZM33.0232 52.2656C32.2462 52.2656 31.6185 51.647 31.6185 50.8813C31.6185 50.1155 32.2462 49.4969 33.0232 49.4969C33.8001 49.4969 34.4278 50.1155 34.4278 50.8813C34.4278 51.647 33.8001 52.2656 33.0232 52.2656ZM37.9394 47.5934C37.9394 47.8789 37.7024 48.1125 37.4127 48.1125H28.6337C28.344 48.1125 28.107 47.8789 28.107 47.5934V34.0957C28.107 33.8102 28.344 33.5766 28.6337 33.5766H37.4127C37.7024 33.5766 37.9394 33.8102 37.9394 34.0957V47.5934Z" fill="white"/>
<path d="M31.3101 42.6149L29.6852 40.9919L31.3101 39.3761H32.4906L30.8511 40.9919L32.4906 42.6149H31.3101Z" fill="white"/>
<path d="M33.5142 42.6149L35.1464 40.9919L33.5142 39.3761H34.6873L36.3195 40.9919L34.6873 42.6149H33.5142Z" fill="white"/>
</svg>
