<svg width="100" height="50" viewBox="0 0 100 50" fill="none" xmlns="http://www.w3.org/2000/svg">
<path d="M26.8571 10.7352C26.8571 10.7352 28.0952 5.15955 28.6857 2.80862C23.8857 -0.499311 14.2857 -0.436897 8.22859 1.18586C2.17144 2.80862 -0.514275 9.98622 0.914297 16.0404C2.34287 22.0945 14.5143 26.5883 16.5143 27.2749C19.5428 28.3145 20.9714 32.2703 17.8857 33.8283C11.8286 36.8866 4.45713 32.7049 2.34286 32.3928L0 40.3818C2.34286 41.2556 2.62856 41.5933 5.48571 42.2542C16.5143 44.8051 22.9143 42.6911 26.8571 38.8214C28.8417 36.8737 31.3714 32.268 29.6 26.2138C27.8286 20.1597 17.8286 16.4773 15.8857 16.0404C13.9429 15.6035 9.48573 12.7324 11.6571 9.98622C15.0905 5.64406 26.8571 10.7352 26.8571 10.7352Z" fill="white"/>
<path d="M66.7429 0H42.5714C48.5714 2.80862 48.5714 7.11518 48.5714 10.4231C48.5714 15.3169 44 21.1583 44 21.1583C44 21.1583 48.7289 26.5912 48.9143 26.2762C49.9428 24.5287 52.2857 17.4135 52.2857 17.4135C52.2857 17.4135 57.5429 21.1583 57.5429 21.4704C55.8286 27.15 53.6 30.9573 53.6 30.9573C53.6 30.9573 57.3524 34.7021 59.2 36.1376L56.4571 42.8783H64.6857L65.8857 19.9724L73.0286 36.1376H82.2857L89.4286 19.9724L90.4571 42.8783H100L96.6857 0H88.4L77.4857 25.5897L66.7429 0Z" fill="white"/>
<path d="M55.4286 42.8783L49.7714 37.6356C48.4 39.4456 45.9428 41.9421 43.2 42.7535L55.4286 42.8783Z" fill="white"/>
<path d="M44.9143 32.7049L39.4857 26.5883C37.4857 27.3373 35.7714 32.8921 38.0571 34.9518C40.0407 36.7391 44.1714 34.39 44.9143 32.7049Z" fill="white"/>
<path d="M42.4571 12.1083C41.9428 13.3566 41.2 14.7297 39.8286 16.29C38.8 14.6048 37.7643 13.0445 37.6571 12.1083C37.6 11.609 37.0857 7.05277 40.3428 7.36484C43.6 7.67691 42.6073 11.7438 42.4571 12.1083Z" fill="white"/>
<path d="M1.59817 50C0.92 50 0.436343 49.7531 0.105143 49.3913L0.5152 48.754C0.762286 49.0353 1.14606 49.2765 1.62971 49.2765C2.04503 49.2765 2.23954 49.0755 2.23954 48.8516C2.23954 48.1855 0.2208 48.6506 0.2208 47.2093C0.2208 46.572 0.725486 46.0437 1.55086 46.0437C2.10811 46.0437 2.57074 46.2275 2.91771 46.5777L2.5024 47.1864C2.21851 46.8993 1.84 46.7672 1.48251 46.7672C1.16709 46.7672 0.988343 46.9165 0.988343 47.1462C0.988343 47.7491 3.00183 47.3414 3.00183 48.7712C3.00183 49.4717 2.5392 50 1.59817 50Z" fill="white"/>
<path d="M7.40526 50C6.34858 50 5.53372 49.1961 5.53372 48.019C5.53372 46.8361 6.34858 46.038 7.40526 46.038C8.1728 46.038 8.61966 46.4916 8.86675 46.9739L8.22538 47.3185C8.07818 47.0084 7.76275 46.7615 7.40526 46.7615C6.76389 46.7615 6.30126 47.2955 6.30126 48.019C6.30126 48.7425 6.76389 49.2765 7.40526 49.2765C7.76275 49.2765 8.07818 49.0296 8.22538 48.7195L8.86675 49.0583C8.61966 49.5349 8.1728 50 7.40526 50Z" fill="white"/>
<path d="M14.6681 49.9311H13.9164V48.3176H12.2604V49.9311H11.5138V46.1011H12.2604V47.6056H13.9164V46.1011H14.6681V49.9311Z" fill="white"/>
<path d="M19.2284 50C18.1665 50 17.3937 49.1731 17.3937 48.019C17.3937 46.8648 18.1665 46.038 19.2284 46.038C20.2851 46.038 21.0579 46.8648 21.0579 48.019C21.0579 49.1731 20.2851 50 19.2284 50ZM19.2284 49.2765C19.875 49.2765 20.2904 48.731 20.2904 48.019C20.2904 47.3012 19.875 46.7615 19.2284 46.7615C18.5765 46.7615 18.1612 47.3012 18.1612 48.019C18.1612 48.731 18.5765 49.2765 19.2284 49.2765Z" fill="white"/>
<path d="M25.9873 49.9311H23.753V46.1011H24.5047V49.2133H25.9873V49.9311Z" fill="white"/>
<path d="M31.9628 49.9311H31.1164L30.8956 49.2822H29.392L29.1712 49.9311H28.3248L29.6759 46.1011H30.6117L31.9628 49.9311ZM30.6905 48.5645L30.1438 46.9165L29.5971 48.5645H30.6905Z" fill="white"/>
<path d="M37.3334 49.9311H36.4713L35.7826 48.5702H35.2358V49.9311H34.4893V46.1011H36.1296C36.8603 46.1011 37.3124 46.6237 37.3124 47.3357C37.3124 48.0075 36.9181 48.375 36.5396 48.4726L37.3334 49.9311ZM36.0244 47.8525C36.3188 47.8525 36.5449 47.6572 36.5449 47.3299C36.5449 47.0141 36.3188 46.8189 36.0244 46.8189H35.2358V47.8525H36.0244Z" fill="white"/>
<path d="M42.2729 49.9311H40.0387V46.1011H40.7904V49.2133H42.2729V49.9311Z" fill="white"/>
<path d="M46.0355 49.9311H45.2889V48.3635L43.9431 46.1011H44.7948L45.6622 47.6343L46.5296 46.1011H47.376L46.0355 48.3635V49.9311Z" fill="white"/>
<path d="M54.7064 50C54.0282 50 53.5446 49.7531 53.2134 49.3913L53.6234 48.754C53.8705 49.0353 54.2543 49.2765 54.738 49.2765C55.1533 49.2765 55.3478 49.0755 55.3478 48.8516C55.3478 48.1855 53.329 48.6506 53.329 47.2093C53.329 46.572 53.8337 46.0437 54.6591 46.0437C55.2164 46.0437 55.679 46.2275 56.026 46.5777L55.6106 47.1864C55.3268 46.8993 54.9482 46.7672 54.5908 46.7672C54.2753 46.7672 54.0966 46.9165 54.0966 47.1462C54.0966 47.7491 56.1101 47.3414 56.1101 48.7712C56.1101 49.4717 55.6474 50 54.7064 50Z" fill="white"/>
<path d="M60.4767 50C59.4148 50 58.642 49.1731 58.642 48.019C58.642 46.8648 59.4148 46.038 60.4767 46.038C61.5334 46.038 62.3062 46.8648 62.3062 48.019C62.3062 49.1731 61.5334 50 60.4767 50ZM60.4767 49.2765C61.1233 49.2765 61.5386 48.731 61.5386 48.019C61.5386 47.3012 61.1233 46.7615 60.4767 46.7615C59.8248 46.7615 59.4095 47.3012 59.4095 48.019C59.4095 48.731 59.8248 49.2765 60.4767 49.2765Z" fill="white"/>
<path d="M67.2355 49.9311H65.0013V46.1011H65.753V49.2133H67.2355V49.9311Z" fill="white"/>
<path d="M71.3952 50C70.328 50 69.8128 49.3454 69.8128 48.398V46.1011H70.5698V48.375C70.5698 48.909 70.8537 49.2765 71.3952 49.2765C71.9367 49.2765 72.2153 48.909 72.2153 48.375V46.1011H72.9776V48.398C72.9776 49.3454 72.4624 50 71.3952 50Z" fill="white"/>
<path d="M77.4376 49.9311H76.6858V46.8189H75.6607V46.1011H78.4575V46.8189H77.4376V49.9311Z" fill="white"/>
<path d="M81.8853 49.9311H81.1388V46.1011H81.8853V49.9311Z" fill="white"/>
<path d="M86.4507 50C85.3887 50 84.616 49.1731 84.616 48.019C84.616 46.8648 85.3887 46.038 86.4507 46.038C87.5074 46.038 88.2802 46.8648 88.2802 48.019C88.2802 49.1731 87.5074 50 86.4507 50ZM86.4507 49.2765C87.0973 49.2765 87.5126 48.731 87.5126 48.019C87.5126 47.3012 87.0973 46.7615 86.4507 46.7615C85.7988 46.7615 85.3835 47.3012 85.3835 48.019C85.3835 48.731 85.7988 49.2765 86.4507 49.2765Z" fill="white"/>
<path d="M94.1453 49.9311H93.4251L91.7533 47.4333V49.9311H91.0068V46.1011H91.7743L93.3988 48.5071V46.1011H94.1453V49.9311Z" fill="white"/>
<path d="M98.2906 50C97.6125 50 97.1288 49.7531 96.7976 49.3913L97.2077 48.754C97.4548 49.0353 97.8385 49.2765 98.3222 49.2765C98.7375 49.2765 98.932 49.0755 98.932 48.8516C98.932 48.1855 96.9133 48.6506 96.9133 47.2093C96.9133 46.572 97.418 46.0437 98.2433 46.0437C98.8006 46.0437 99.2632 46.2275 99.6102 46.5777L99.1949 47.1864C98.911 46.8993 98.5325 46.7672 98.175 46.7672C97.8596 46.7672 97.6808 46.9165 97.6808 47.1462C97.6808 47.7491 99.6943 47.3414 99.6943 48.7712C99.6943 49.4717 99.2317 50 98.2906 50Z" fill="white"/>
</svg>
